<svg id="Layer_1" data-name="Layer 1" xmlns="http://www.w3.org/2000/svg" xmlns:xlink="http://www.w3.org/1999/xlink" viewBox="0 0 512 512"><defs><linearGradient id="New_Gradient_Swatch_2" x1="2709.66" y1="3101.95" x2="3221.66" y2="3101.95" gradientTransform="matrix(0, -1, -1, 0, 3357.95, 3221.66)" gradientUnits="userSpaceOnUse"><stop offset="0" stop-color="#961b1e"/><stop offset="1" stop-color="#ec1c24"/></linearGradient></defs><title>folder</title><rect width="512" height="512" rx="99.7" ry="99.7" fill="url(#New_Gradient_Swatch_2)"/><path d="M512,99.7s0-.1,0-.15a99,99,0,0,0-28.41-69.34,41.34,41.34,0,0,0-31.37-2.89l-168,52A41.7,41.7,0,0,0,232.1,51.76L150.84,76.9a41.66,41.66,0,0,0-27.4,52.15s.54,1.77.67,2.16c-5.74,3.8-10.82,8.45-14.13,14.73a41.6,41.6,0,0,0-3,31.87L161.83,355c0,.08,12,34,12,34s9.62,21.86,20.87,26.87c8.54,3.81,17.37,6.46,26.52,3.62L512,329.64V99.7Z" fill="#70090a"/><path d="M196,158,490.2,89.61,486,71.51A18.27,18.27,0,0,0,464.15,57.8L273.57,102.13,268.41,80a18.27,18.27,0,0,0-21.84-13.68L165.09,85.26a18.28,18.28,0,0,0-13.54,21.94l5.15,22.13-11.16,2.6A18.28,18.28,0,0,0,132,153.87l41.32,177.69a19,19,0,0,0,2.2,5.21L173,187.68C172.83,174.12,182.91,161.1,196,158Z" fill="#fff"/><path d="M512,105.83,204.74,176.94c-6.27,1.46-11.68,8.39-11.57,14.85l3.07,183.29a6.74,6.74,0,0,0,8.92,7L512,311V106S512,105.88,512,105.83Z" fill="#fff"/></svg>